<?xml version="1.0" standalone="no"?>
<!DOCTYPE svg PUBLIC "-//W3C//DTD SVG 20010904//EN"
 "http://www.w3.org/TR/2001/REC-SVG-20010904/DTD/svg10.dtd">
<svg version="1.0" xmlns="http://www.w3.org/2000/svg"
 width="1567.000000pt" height="494.000000pt" viewBox="0 0 1567.000000 494.000000"
 preserveAspectRatio="xMidYMid meet">

<g transform="translate(0.000000,494.000000) scale(0.100000,-0.100000)"
fill="#000000" stroke="none">
<path d="M0 2470 l0 -2470 2465 0 2465 0 0 2470 0 2470 -2465 0 -2465 0 0
-2470z m1265 343 l260 -367 3 367 2 367 185 0 185 0 0 -690 0 -690 -172 0
-173 1 -260 358 -260 358 -3 -359 -2 -358 -185 0 -185 0 0 690 0 690 173 0
172 0 260 -367z m1851 277 c6 -47 14 -111 18 -142 l6 -58 -280 0 -280 0 0
-135 0 -135 212 -2 213 -3 12 -100 c6 -55 15 -121 18 -147 l6 -48 -231 0 -230
0 0 -260 0 -260 -185 0 -185 0 0 690 0 690 448 -2 447 -3 11 -85z m1254 77 c0
-7 7 -67 15 -132 8 -66 15 -126 15 -132 0 -10 -51 -13 -220 -13 l-220 0 0
-545 0 -545 -185 0 -185 0 0 545 0 545 -200 0 -200 0 0 145 0 145 590 0 c475
0 590 -3 590 -13z"/>
<path d="M11508 3368 l-58 -10 0 -869 0 -869 80 0 80 0 0 435 0 434 50 50 c62
62 121 103 204 142 179 84 315 54 377 -83 24 -53 24 -53 27 -515 l3 -463 79 0
80 0 0 408 c0 224 -5 447 -10 497 -18 150 -78 248 -186 301 -44 21 -74 28
-149 32 -82 4 -105 1 -177 -21 -92 -29 -188 -82 -254 -140 l-44 -39 0 361 0
361 -22 -1 c-13 -1 -49 -6 -80 -11z"/>
<path d="M14390 3338 c-84 -43 -113 -139 -67 -228 59 -117 229 -113 287 6 71
145 -78 295 -220 222z"/>
<path d="M13455 2963 l-370 -386 -3 371 -2 372 -140 0 -140 0 0 -850 0 -850
140 0 140 0 0 279 0 279 88 91 87 92 275 -370 275 -370 173 -1 174 0 -38 53
c-21 28 -180 240 -352 470 l-314 419 24 26 c13 14 146 156 296 315 l272 289
-99 79 c-54 43 -103 79 -107 78 -5 0 -175 -174 -379 -386z"/>
<path d="M5347 3313 c-4 -3 -7 -386 -7 -850 l0 -843 490 0 490 0 0 29 c0 16
-3 43 -6 60 l-6 31 -404 0 -404 0 0 790 0 790 -73 0 c-41 0 -77 -3 -80 -7z"/>
<path d="M15073 3143 l-123 -26 0 -148 0 -149 -85 0 -86 0 3 -107 3 -108 83
-3 82 -3 0 -339 c0 -213 4 -359 11 -392 25 -116 89 -200 191 -248 112 -53 259
-62 374 -23 88 29 87 25 44 138 -20 55 -41 100 -46 100 -5 0 -32 -6 -61 -14
-69 -17 -126 -7 -169 31 -58 52 -64 90 -64 440 l0 308 150 0 c114 0 150 3 149
13 0 6 -17 55 -38 107 l-39 95 -111 3 -111 3 0 174 c0 160 -1 175 -17 174 -10
-1 -73 -12 -140 -26z"/>
<path d="M6801 2845 c-80 -18 -155 -42 -203 -66 l-37 -19 20 -48 c11 -26 23
-50 27 -54 4 -4 50 9 102 29 79 30 111 37 196 41 234 11 331 -76 342 -305 l5
-103 -209 0 c-230 0 -301 -11 -386 -57 -111 -61 -168 -153 -176 -284 -6 -98
10 -164 57 -237 67 -103 170 -152 326 -155 116 -2 206 26 315 98 l78 53 7 -59
7 -59 64 0 65 0 -3 483 -3 482 -28 56 c-30 63 -103 136 -165 168 -96 49 -268
64 -401 36z m447 -783 l3 -153 -55 -52 c-165 -158 -379 -193 -488 -80 -58 61
-73 98 -73 183 0 87 22 137 81 189 69 62 109 69 344 67 l185 -1 3 -153z"/>
<path d="M9463 2836 c-91 -30 -187 -83 -250 -141 l-51 -45 -5 28 c-3 15 -9 55
-13 90 l-7 62 -63 0 -64 0 0 -605 0 -605 75 0 75 0 0 428 0 428 36 42 c76 90
260 195 360 208 102 12 195 -29 233 -104 36 -70 41 -143 41 -579 l0 -423 75 0
75 0 0 463 c0 515 -2 539 -65 634 -19 28 -50 63 -69 78 -87 66 -251 84 -383
41z"/>
<path d="M10641 2840 c-166 -44 -299 -164 -366 -329 -77 -188 -68 -444 22
-631 42 -87 138 -189 219 -232 122 -65 295 -79 459 -38 101 25 195 64 195 79
0 6 -10 32 -22 58 -13 27 -23 49 -23 50 -1 1 -37 -13 -82 -32 -134 -59 -304
-67 -414 -21 -143 60 -234 224 -246 441 -13 253 103 469 283 525 119 36 263
25 395 -31 37 -16 70 -29 72 -29 2 0 14 22 27 50 29 62 24 69 -73 104 -161 58
-313 70 -446 36z"/>
<path d="M7710 2368 c0 -269 5 -481 10 -506 25 -109 90 -196 177 -239 48 -23
73 -28 154 -31 110 -5 173 9 278 63 75 38 191 121 192 138 1 31 17 -36 24
-100 l7 -73 64 0 64 0 0 605 0 605 -75 0 -75 0 0 -434 0 -434 -69 -64 c-239
-220 -494 -238 -573 -40 -22 56 -23 65 -26 515 l-3 457 -75 0 -74 0 0 -462z"/>
<path d="M14330 2225 l0 -605 140 0 140 0 0 605 0 605 -140 0 -140 0 0 -605z"/>
</g>
</svg>
