<svg xmlns="http://www.w3.org/2000/svg" class="w-6 h-6" viewBox="0 0 49 48" fill="none"><path fill-rule="evenodd" clip-rule="evenodd" d="M10.623 0C4.80947 0 0.0966797 4.69794 0.0966797 10.4931V37.3556C0.0966797 43.1508 4.80947 47.8487 10.623 47.8487H37.5704C43.3839 47.8487 48.0967 43.1508 48.0967 37.3556V10.4931C48.0967 4.69794 43.3839 0 37.5704 0H10.623ZM33.2937 23.8644C34.8009 23.4678 36.1419 22.3261 36.1419 20.0308C36.1419 16.2093 32.9377 15.3201 28.8317 15.3201H12.4786V32.5288H19.3616V26.6884H27.5263C28.7842 26.6884 29.52 27.1931 29.52 28.4429V32.5288H36.403V28.2266C36.403 25.8833 35.0976 24.4051 33.2937 23.8644ZM28.6697 20.128H19.3647V22.4743H28.6697V22.4736C28.6836 22.4741 28.6975 22.4743 28.7115 22.4743C29.3514 22.4743 29.8701 21.9491 29.8701 21.3012C29.8701 20.6532 29.3514 20.128 28.7115 20.128C28.6975 20.128 28.6836 20.1283 28.6697 20.1288V20.128Z" fill="#16161A"></path></svg>